<svg width="16" height="16" viewBox="0 0 16 16" fill="none" xmlns="http://www.w3.org/2000/svg">
<g clip-path="url(#clip0_169_12701)">
<path d="M7.99967 14.6663C6.57018 14.6663 5.54149 14.6656 4.73947 14.5879C3.94664 14.511 3.43947 14.3633 3.03472 14.109C2.57212 13.8183 2.18096 13.4272 1.89028 12.9646C1.63604 12.5599 1.48826 12.0527 1.41149 11.2599C1.33371 10.4579 1.33301 9.42917 1.33301 7.99967C1.33301 6.57018 1.33371 5.54149 1.41149 4.73947C1.48826 3.94664 1.63604 3.43947 1.89028 3.03472C2.18094 2.57211 2.57211 2.18094 3.03472 1.89028C3.43947 1.63604 3.94664 1.48826 4.73947 1.41149C5.54139 1.33371 6.57008 1.33301 7.99967 1.33301C9.42917 1.33301 10.4579 1.33371 11.2599 1.41149C12.0527 1.48826 12.5599 1.63604 12.9646 1.89028C13.4272 2.18096 13.8183 2.57212 14.109 3.03472C14.3633 3.43947 14.511 3.94664 14.5879 4.73947C14.6656 5.54149 14.6663 6.57018 14.6663 7.99967C14.6663 9.42917 14.6656 10.4579 14.5879 11.2599C14.511 12.0527 14.3633 12.5599 14.109 12.9646C13.8183 13.4272 13.4272 13.8183 12.9646 14.109C12.5599 14.3633 12.0527 14.511 11.2599 14.5879C10.4579 14.6656 9.42917 14.6663 7.99967 14.6663Z" fill="white" stroke="white" stroke-width="2"/>
<path d="M7.99967 11.3333C9.47243 11.3333 10.6663 10.1394 10.6663 8.66667C10.6663 7.19391 9.47243 6 7.99967 6C6.52692 6 5.33301 7.19391 5.33301 8.66667C5.33301 10.1394 6.52692 11.3333 7.99967 11.3333Z" fill="white" stroke="black" stroke-width="2"/>
<path d="M11.25 5.5C11.6642 5.5 12 5.16421 12 4.75C12 4.33579 11.6642 4 11.25 4C10.8358 4 10.5 4.33579 10.5 4.75C10.5 5.16421 10.8358 5.5 11.25 5.5Z" fill="black"/>
</g>
<defs>
<clipPath id="clip0_169_12701">
<rect width="16" height="16" fill="white"/>
</clipPath>
</defs>
</svg>
